<svg width="20" height="21" viewBox="0 0 20 21" fill="none" xmlns="http://www.w3.org/2000/svg">
<path fill-rule="evenodd" clip-rule="evenodd" d="M3.10039 0.899902C1.60922 0.899902 0.400391 2.10873 0.400391 3.5999V17.3999C0.400391 18.8911 1.60922 20.0999 3.10039 20.0999H16.9004C18.3916 20.0999 19.6004 18.8911 19.6004 17.3999V3.5999C19.6004 2.10873 18.3916 0.899902 16.9004 0.899902H3.10039ZM7.93679 8.4363C8.28826 8.08483 8.28826 7.51498 7.93679 7.16351C7.58532 6.81203 7.01547 6.81203 6.66399 7.16351L3.96399 9.86351C3.61252 10.215 3.61252 10.7848 3.96399 11.1363L6.66399 13.8363C7.01547 14.1878 7.58532 14.1878 7.93679 13.8363C8.28826 13.4848 8.28826 12.915 7.93679 12.5635L5.87318 10.4999L7.93679 8.4363ZM13.3368 7.16351C12.9853 6.81203 12.4155 6.81203 12.064 7.16351C11.7125 7.51498 11.7125 8.08483 12.064 8.4363L14.1276 10.4999L12.064 12.5635C11.7125 12.915 11.7125 13.4848 12.064 13.8363C12.4155 14.1878 12.9853 14.1878 13.3368 13.8363L16.0368 11.1363C16.3883 10.7848 16.3883 10.215 16.0368 9.86351L13.3368 7.16351Z" fill="#E7C009"/>
</svg>
